<?xml version="1.0" standalone="no"?><!DOCTYPE svg PUBLIC "-//W3C//DTD SVG 1.1//EN" "http://www.w3.org/Graphics/SVG/1.1/DTD/svg11.dtd"><svg t="1596190236858" class="icon" viewBox="0 0 1024 1024" version="1.1" xmlns="http://www.w3.org/2000/svg" p-id="6496" xmlns:xlink="http://www.w3.org/1999/xlink" width="200" height="200"><defs><style type="text/css"></style></defs><path d="M512 1024C229.248 1024 0 794.752 0 512S229.248 0 512 0s512 229.248 512 512-229.248 512-512 512z m0-77.44c240 0 434.56-194.56 434.56-434.56 0-240-194.56-434.56-434.56-434.56C272 77.44 77.44 272 77.44 512c0 240 194.56 434.56 434.56 434.56zM511.658667 210.773333h0.682666a42.666667 42.666667 0 0 1 42.666667 42.666667v344.917333a42.666667 42.666667 0 0 1-42.666667 42.666667h-0.682666a42.666667 42.666667 0 0 1-42.666667-42.666667V253.482667a42.666667 42.666667 0 0 1 42.666667-42.666667zM512 813.226667a43.008 43.008 0 1 1 0-86.058667 43.008 43.008 0 0 1 0 86.058667z" fill="#000000" p-id="6497"></path></svg>